<svg xmlns="http://www.w3.org/2000/svg" viewBox="0 0 1640 1000" width="1640" height="1000"><defs>
  <filter id="rough" x="-5%" y="-5%" width="110%" height="110%">
    <feTurbulence type="fractalNoise" baseFrequency="0.03" numOctaves="2" seed="5" result="n"/>
    <feDisplacementMap in="SourceGraphic" in2="n" scale="4" xChannelSelector="R" yChannelSelector="G"/>
  </filter>
  <filter id="grain" x="0" y="0" width="100%" height="100%">
    <feTurbulence type="fractalNoise" baseFrequency="0.9" numOctaves="2" seed="7" stitchTiles="stitch"/>
    <feColorMatrix values="0 0 0 0 0  0 0 0 0 0  0 0 0 0 0  0 0 0 0.13 0"/>
  </filter>
  <filter id="glow" x="-50%" y="-50%" width="200%" height="200%">
    <feGaussianBlur stdDeviation="9" result="b"/>
    <feMerge><feMergeNode in="b"/><feMergeNode in="SourceGraphic"/></feMerge>
  </filter>
  <filter id="soft"><feGaussianBlur stdDeviation="14"/></filter>
</defs><rect width="1640" height="1000" fill="#9bbc0f"/><rect width="1640" height="1000" fill="#9bbc0f"/><rect x="0" y="0" width="4" height="4" fill="#8bac0f"/><rect x="0" y="220" width="4" height="4" fill="#8bac0f"/><rect x="0" y="440" width="4" height="4" fill="#8bac0f"/><rect x="0" y="660" width="4" height="4" fill="#8bac0f"/><rect x="0" y="880" width="4" height="4" fill="#8bac0f"/><rect x="20" y="100" width="4" height="4" fill="#8bac0f"/><rect x="20" y="320" width="4" height="4" fill="#8bac0f"/><rect x="20" y="540" width="4" height="4" fill="#8bac0f"/><rect x="20" y="760" width="4" height="4" fill="#8bac0f"/><rect x="20" y="980" width="4" height="4" fill="#8bac0f"/><rect x="40" y="200" width="4" height="4" fill="#8bac0f"/><rect x="40" y="420" width="4" height="4" fill="#8bac0f"/><rect x="40" y="640" width="4" height="4" fill="#8bac0f"/><rect x="40" y="860" width="4" height="4" fill="#8bac0f"/><rect x="60" y="80" width="4" height="4" fill="#8bac0f"/><rect x="60" y="300" width="4" height="4" fill="#8bac0f"/><rect x="60" y="520" width="4" height="4" fill="#8bac0f"/><rect x="60" y="740" width="4" height="4" fill="#8bac0f"/><rect x="60" y="960" width="4" height="4" fill="#8bac0f"/><rect x="80" y="180" width="4" height="4" fill="#8bac0f"/><rect x="80" y="400" width="4" height="4" fill="#8bac0f"/><rect x="80" y="620" width="4" height="4" fill="#8bac0f"/><rect x="80" y="840" width="4" height="4" fill="#8bac0f"/><rect x="100" y="60" width="4" height="4" fill="#8bac0f"/><rect x="100" y="280" width="4" height="4" fill="#8bac0f"/><rect x="100" y="500" width="4" height="4" fill="#8bac0f"/><rect x="100" y="720" width="4" height="4" fill="#8bac0f"/><rect x="100" y="940" width="4" height="4" fill="#8bac0f"/><rect x="120" y="160" width="4" height="4" fill="#8bac0f"/><rect x="120" y="380" width="4" height="4" fill="#8bac0f"/><rect x="120" y="600" width="4" height="4" fill="#8bac0f"/><rect x="120" y="820" width="4" height="4" fill="#8bac0f"/><rect x="140" y="40" width="4" height="4" fill="#8bac0f"/><rect x="140" y="260" width="4" height="4" fill="#8bac0f"/><rect x="140" y="480" width="4" height="4" fill="#8bac0f"/><rect x="140" y="700" width="4" height="4" fill="#8bac0f"/><rect x="140" y="920" width="4" height="4" fill="#8bac0f"/><rect x="160" y="140" width="4" height="4" fill="#8bac0f"/><rect x="160" y="360" width="4" height="4" fill="#8bac0f"/><rect x="160" y="580" width="4" height="4" fill="#8bac0f"/><rect x="160" y="800" width="4" height="4" fill="#8bac0f"/><rect x="180" y="20" width="4" height="4" fill="#8bac0f"/><rect x="180" y="240" width="4" height="4" fill="#8bac0f"/><rect x="180" y="460" width="4" height="4" fill="#8bac0f"/><rect x="180" y="680" width="4" height="4" fill="#8bac0f"/><rect x="180" y="900" width="4" height="4" fill="#8bac0f"/><rect x="200" y="120" width="4" height="4" fill="#8bac0f"/><rect x="200" y="340" width="4" height="4" fill="#8bac0f"/><rect x="200" y="560" width="4" height="4" fill="#8bac0f"/><rect x="200" y="780" width="4" height="4" fill="#8bac0f"/><rect x="220" y="0" width="4" height="4" fill="#8bac0f"/><rect x="220" y="220" width="4" height="4" fill="#8bac0f"/><rect x="220" y="440" width="4" height="4" fill="#8bac0f"/><rect x="220" y="660" width="4" height="4" fill="#8bac0f"/><rect x="220" y="880" width="4" height="4" fill="#8bac0f"/><rect x="240" y="100" width="4" height="4" fill="#8bac0f"/><rect x="240" y="320" width="4" height="4" fill="#8bac0f"/><rect x="240" y="540" width="4" height="4" fill="#8bac0f"/><rect x="240" y="760" width="4" height="4" fill="#8bac0f"/><rect x="240" y="980" width="4" height="4" fill="#8bac0f"/><rect x="260" y="200" width="4" height="4" fill="#8bac0f"/><rect x="260" y="420" width="4" height="4" fill="#8bac0f"/><rect x="260" y="640" width="4" height="4" fill="#8bac0f"/><rect x="260" y="860" width="4" height="4" fill="#8bac0f"/><rect x="280" y="80" width="4" height="4" fill="#8bac0f"/><rect x="280" y="300" width="4" height="4" fill="#8bac0f"/><rect x="280" y="520" width="4" height="4" fill="#8bac0f"/><rect x="280" y="740" width="4" height="4" fill="#8bac0f"/><rect x="280" y="960" width="4" height="4" fill="#8bac0f"/><rect x="300" y="180" width="4" height="4" fill="#8bac0f"/><rect x="300" y="400" width="4" height="4" fill="#8bac0f"/><rect x="300" y="620" width="4" height="4" fill="#8bac0f"/><rect x="300" y="840" width="4" height="4" fill="#8bac0f"/><rect x="320" y="60" width="4" height="4" fill="#8bac0f"/><rect x="320" y="280" width="4" height="4" fill="#8bac0f"/><rect x="320" y="500" width="4" height="4" fill="#8bac0f"/><rect x="320" y="720" width="4" height="4" fill="#8bac0f"/><rect x="320" y="940" width="4" height="4" fill="#8bac0f"/><rect x="340" y="160" width="4" height="4" fill="#8bac0f"/><rect x="340" y="380" width="4" height="4" fill="#8bac0f"/><rect x="340" y="600" width="4" height="4" fill="#8bac0f"/><rect x="340" y="820" width="4" height="4" fill="#8bac0f"/><rect x="360" y="40" width="4" height="4" fill="#8bac0f"/><rect x="360" y="260" width="4" height="4" fill="#8bac0f"/><rect x="360" y="480" width="4" height="4" fill="#8bac0f"/><rect x="360" y="700" width="4" height="4" fill="#8bac0f"/><rect x="360" y="920" width="4" height="4" fill="#8bac0f"/><rect x="380" y="140" width="4" height="4" fill="#8bac0f"/><rect x="380" y="360" width="4" height="4" fill="#8bac0f"/><rect x="380" y="580" width="4" height="4" fill="#8bac0f"/><rect x="380" y="800" width="4" height="4" fill="#8bac0f"/><rect x="400" y="20" width="4" height="4" fill="#8bac0f"/><rect x="400" y="240" width="4" height="4" fill="#8bac0f"/><rect x="400" y="460" width="4" height="4" fill="#8bac0f"/><rect x="400" y="680" width="4" height="4" fill="#8bac0f"/><rect x="400" y="900" width="4" height="4" fill="#8bac0f"/><rect x="420" y="120" width="4" height="4" fill="#8bac0f"/><rect x="420" y="340" width="4" height="4" fill="#8bac0f"/><rect x="420" y="560" width="4" height="4" fill="#8bac0f"/><rect x="420" y="780" width="4" height="4" fill="#8bac0f"/><rect x="440" y="0" width="4" height="4" fill="#8bac0f"/><rect x="440" y="220" width="4" height="4" fill="#8bac0f"/><rect x="440" y="440" width="4" height="4" fill="#8bac0f"/><rect x="440" y="660" width="4" height="4" fill="#8bac0f"/><rect x="440" y="880" width="4" height="4" fill="#8bac0f"/><rect x="460" y="100" width="4" height="4" fill="#8bac0f"/><rect x="460" y="320" width="4" height="4" fill="#8bac0f"/><rect x="460" y="540" width="4" height="4" fill="#8bac0f"/><rect x="460" y="760" width="4" height="4" fill="#8bac0f"/><rect x="460" y="980" width="4" height="4" fill="#8bac0f"/><rect x="480" y="200" width="4" height="4" fill="#8bac0f"/><rect x="480" y="420" width="4" height="4" fill="#8bac0f"/><rect x="480" y="640" width="4" height="4" fill="#8bac0f"/><rect x="480" y="860" width="4" height="4" fill="#8bac0f"/><rect x="500" y="80" width="4" height="4" fill="#8bac0f"/><rect x="500" y="300" width="4" height="4" fill="#8bac0f"/><rect x="500" y="520" width="4" height="4" fill="#8bac0f"/><rect x="500" y="740" width="4" height="4" fill="#8bac0f"/><rect x="500" y="960" width="4" height="4" fill="#8bac0f"/><rect x="520" y="180" width="4" height="4" fill="#8bac0f"/><rect x="520" y="400" width="4" height="4" fill="#8bac0f"/><rect x="520" y="620" width="4" height="4" fill="#8bac0f"/><rect x="520" y="840" width="4" height="4" fill="#8bac0f"/><rect x="540" y="60" width="4" height="4" fill="#8bac0f"/><rect x="540" y="280" width="4" height="4" fill="#8bac0f"/><rect x="540" y="500" width="4" height="4" fill="#8bac0f"/><rect x="540" y="720" width="4" height="4" fill="#8bac0f"/><rect x="540" y="940" width="4" height="4" fill="#8bac0f"/><rect x="560" y="160" width="4" height="4" fill="#8bac0f"/><rect x="560" y="380" width="4" height="4" fill="#8bac0f"/><rect x="560" y="600" width="4" height="4" fill="#8bac0f"/><rect x="560" y="820" width="4" height="4" fill="#8bac0f"/><rect x="580" y="40" width="4" height="4" fill="#8bac0f"/><rect x="580" y="260" width="4" height="4" fill="#8bac0f"/><rect x="580" y="480" width="4" height="4" fill="#8bac0f"/><rect x="580" y="700" width="4" height="4" fill="#8bac0f"/><rect x="580" y="920" width="4" height="4" fill="#8bac0f"/><rect x="600" y="140" width="4" height="4" fill="#8bac0f"/><rect x="600" y="360" width="4" height="4" fill="#8bac0f"/><rect x="600" y="580" width="4" height="4" fill="#8bac0f"/><rect x="600" y="800" width="4" height="4" fill="#8bac0f"/><rect x="620" y="20" width="4" height="4" fill="#8bac0f"/><rect x="620" y="240" width="4" height="4" fill="#8bac0f"/><rect x="620" y="460" width="4" height="4" fill="#8bac0f"/><rect x="620" y="680" width="4" height="4" fill="#8bac0f"/><rect x="620" y="900" width="4" height="4" fill="#8bac0f"/><rect x="640" y="120" width="4" height="4" fill="#8bac0f"/><rect x="640" y="340" width="4" height="4" fill="#8bac0f"/><rect x="640" y="560" width="4" height="4" fill="#8bac0f"/><rect x="640" y="780" width="4" height="4" fill="#8bac0f"/><rect x="660" y="0" width="4" height="4" fill="#8bac0f"/><rect x="660" y="220" width="4" height="4" fill="#8bac0f"/><rect x="660" y="440" width="4" height="4" fill="#8bac0f"/><rect x="660" y="660" width="4" height="4" fill="#8bac0f"/><rect x="660" y="880" width="4" height="4" fill="#8bac0f"/><rect x="680" y="100" width="4" height="4" fill="#8bac0f"/><rect x="680" y="320" width="4" height="4" fill="#8bac0f"/><rect x="680" y="540" width="4" height="4" fill="#8bac0f"/><rect x="680" y="760" width="4" height="4" fill="#8bac0f"/><rect x="680" y="980" width="4" height="4" fill="#8bac0f"/><rect x="700" y="200" width="4" height="4" fill="#8bac0f"/><rect x="700" y="420" width="4" height="4" fill="#8bac0f"/><rect x="700" y="640" width="4" height="4" fill="#8bac0f"/><rect x="700" y="860" width="4" height="4" fill="#8bac0f"/><rect x="720" y="80" width="4" height="4" fill="#8bac0f"/><rect x="720" y="300" width="4" height="4" fill="#8bac0f"/><rect x="720" y="520" width="4" height="4" fill="#8bac0f"/><rect x="720" y="740" width="4" height="4" fill="#8bac0f"/><rect x="720" y="960" width="4" height="4" fill="#8bac0f"/><rect x="740" y="180" width="4" height="4" fill="#8bac0f"/><rect x="740" y="400" width="4" height="4" fill="#8bac0f"/><rect x="740" y="620" width="4" height="4" fill="#8bac0f"/><rect x="740" y="840" width="4" height="4" fill="#8bac0f"/><rect x="760" y="60" width="4" height="4" fill="#8bac0f"/><rect x="760" y="280" width="4" height="4" fill="#8bac0f"/><rect x="760" y="500" width="4" height="4" fill="#8bac0f"/><rect x="760" y="720" width="4" height="4" fill="#8bac0f"/><rect x="760" y="940" width="4" height="4" fill="#8bac0f"/><rect x="780" y="160" width="4" height="4" fill="#8bac0f"/><rect x="780" y="380" width="4" height="4" fill="#8bac0f"/><rect x="780" y="600" width="4" height="4" fill="#8bac0f"/><rect x="780" y="820" width="4" height="4" fill="#8bac0f"/><rect x="800" y="40" width="4" height="4" fill="#8bac0f"/><rect x="800" y="260" width="4" height="4" fill="#8bac0f"/><rect x="800" y="480" width="4" height="4" fill="#8bac0f"/><rect x="800" y="700" width="4" height="4" fill="#8bac0f"/><rect x="800" y="920" width="4" height="4" fill="#8bac0f"/><rect x="820" y="140" width="4" height="4" fill="#8bac0f"/><rect x="820" y="360" width="4" height="4" fill="#8bac0f"/><rect x="820" y="580" width="4" height="4" fill="#8bac0f"/><rect x="820" y="800" width="4" height="4" fill="#8bac0f"/><rect x="840" y="20" width="4" height="4" fill="#8bac0f"/><rect x="840" y="240" width="4" height="4" fill="#8bac0f"/><rect x="840" y="460" width="4" height="4" fill="#8bac0f"/><rect x="840" y="680" width="4" height="4" fill="#8bac0f"/><rect x="840" y="900" width="4" height="4" fill="#8bac0f"/><rect x="860" y="120" width="4" height="4" fill="#8bac0f"/><rect x="860" y="340" width="4" height="4" fill="#8bac0f"/><rect x="860" y="560" width="4" height="4" fill="#8bac0f"/><rect x="860" y="780" width="4" height="4" fill="#8bac0f"/><rect x="880" y="0" width="4" height="4" fill="#8bac0f"/><rect x="880" y="220" width="4" height="4" fill="#8bac0f"/><rect x="880" y="440" width="4" height="4" fill="#8bac0f"/><rect x="880" y="660" width="4" height="4" fill="#8bac0f"/><rect x="880" y="880" width="4" height="4" fill="#8bac0f"/><rect x="900" y="100" width="4" height="4" fill="#8bac0f"/><rect x="900" y="320" width="4" height="4" fill="#8bac0f"/><rect x="900" y="540" width="4" height="4" fill="#8bac0f"/><rect x="900" y="760" width="4" height="4" fill="#8bac0f"/><rect x="900" y="980" width="4" height="4" fill="#8bac0f"/><rect x="920" y="200" width="4" height="4" fill="#8bac0f"/><rect x="920" y="420" width="4" height="4" fill="#8bac0f"/><rect x="920" y="640" width="4" height="4" fill="#8bac0f"/><rect x="920" y="860" width="4" height="4" fill="#8bac0f"/><rect x="940" y="80" width="4" height="4" fill="#8bac0f"/><rect x="940" y="300" width="4" height="4" fill="#8bac0f"/><rect x="940" y="520" width="4" height="4" fill="#8bac0f"/><rect x="940" y="740" width="4" height="4" fill="#8bac0f"/><rect x="940" y="960" width="4" height="4" fill="#8bac0f"/><rect x="960" y="180" width="4" height="4" fill="#8bac0f"/><rect x="960" y="400" width="4" height="4" fill="#8bac0f"/><rect x="960" y="620" width="4" height="4" fill="#8bac0f"/><rect x="960" y="840" width="4" height="4" fill="#8bac0f"/><rect x="980" y="60" width="4" height="4" fill="#8bac0f"/><rect x="980" y="280" width="4" height="4" fill="#8bac0f"/><rect x="980" y="500" width="4" height="4" fill="#8bac0f"/><rect x="980" y="720" width="4" height="4" fill="#8bac0f"/><rect x="980" y="940" width="4" height="4" fill="#8bac0f"/><rect x="1000" y="160" width="4" height="4" fill="#8bac0f"/><rect x="1000" y="380" width="4" height="4" fill="#8bac0f"/><rect x="1000" y="600" width="4" height="4" fill="#8bac0f"/><rect x="1000" y="820" width="4" height="4" fill="#8bac0f"/><rect x="1020" y="40" width="4" height="4" fill="#8bac0f"/><rect x="1020" y="260" width="4" height="4" fill="#8bac0f"/><rect x="1020" y="480" width="4" height="4" fill="#8bac0f"/><rect x="1020" y="700" width="4" height="4" fill="#8bac0f"/><rect x="1020" y="920" width="4" height="4" fill="#8bac0f"/><rect x="1040" y="140" width="4" height="4" fill="#8bac0f"/><rect x="1040" y="360" width="4" height="4" fill="#8bac0f"/><rect x="1040" y="580" width="4" height="4" fill="#8bac0f"/><rect x="1040" y="800" width="4" height="4" fill="#8bac0f"/><rect x="1060" y="20" width="4" height="4" fill="#8bac0f"/><rect x="1060" y="240" width="4" height="4" fill="#8bac0f"/><rect x="1060" y="460" width="4" height="4" fill="#8bac0f"/><rect x="1060" y="680" width="4" height="4" fill="#8bac0f"/><rect x="1060" y="900" width="4" height="4" fill="#8bac0f"/><rect x="1080" y="120" width="4" height="4" fill="#8bac0f"/><rect x="1080" y="340" width="4" height="4" fill="#8bac0f"/><rect x="1080" y="560" width="4" height="4" fill="#8bac0f"/><rect x="1080" y="780" width="4" height="4" fill="#8bac0f"/><rect x="1100" y="0" width="4" height="4" fill="#8bac0f"/><rect x="1100" y="220" width="4" height="4" fill="#8bac0f"/><rect x="1100" y="440" width="4" height="4" fill="#8bac0f"/><rect x="1100" y="660" width="4" height="4" fill="#8bac0f"/><rect x="1100" y="880" width="4" height="4" fill="#8bac0f"/><rect x="1120" y="100" width="4" height="4" fill="#8bac0f"/><rect x="1120" y="320" width="4" height="4" fill="#8bac0f"/><rect x="1120" y="540" width="4" height="4" fill="#8bac0f"/><rect x="1120" y="760" width="4" height="4" fill="#8bac0f"/><rect x="1120" y="980" width="4" height="4" fill="#8bac0f"/><rect x="1140" y="200" width="4" height="4" fill="#8bac0f"/><rect x="1140" y="420" width="4" height="4" fill="#8bac0f"/><rect x="1140" y="640" width="4" height="4" fill="#8bac0f"/><rect x="1140" y="860" width="4" height="4" fill="#8bac0f"/><rect x="1160" y="80" width="4" height="4" fill="#8bac0f"/><rect x="1160" y="300" width="4" height="4" fill="#8bac0f"/><rect x="1160" y="520" width="4" height="4" fill="#8bac0f"/><rect x="1160" y="740" width="4" height="4" fill="#8bac0f"/><rect x="1160" y="960" width="4" height="4" fill="#8bac0f"/><rect x="1180" y="180" width="4" height="4" fill="#8bac0f"/><rect x="1180" y="400" width="4" height="4" fill="#8bac0f"/><rect x="1180" y="620" width="4" height="4" fill="#8bac0f"/><rect x="1180" y="840" width="4" height="4" fill="#8bac0f"/><rect x="1200" y="60" width="4" height="4" fill="#8bac0f"/><rect x="1200" y="280" width="4" height="4" fill="#8bac0f"/><rect x="1200" y="500" width="4" height="4" fill="#8bac0f"/><rect x="1200" y="720" width="4" height="4" fill="#8bac0f"/><rect x="1200" y="940" width="4" height="4" fill="#8bac0f"/><rect x="1220" y="160" width="4" height="4" fill="#8bac0f"/><rect x="1220" y="380" width="4" height="4" fill="#8bac0f"/><rect x="1220" y="600" width="4" height="4" fill="#8bac0f"/><rect x="1220" y="820" width="4" height="4" fill="#8bac0f"/><rect x="1240" y="40" width="4" height="4" fill="#8bac0f"/><rect x="1240" y="260" width="4" height="4" fill="#8bac0f"/><rect x="1240" y="480" width="4" height="4" fill="#8bac0f"/><rect x="1240" y="700" width="4" height="4" fill="#8bac0f"/><rect x="1240" y="920" width="4" height="4" fill="#8bac0f"/><rect x="1260" y="140" width="4" height="4" fill="#8bac0f"/><rect x="1260" y="360" width="4" height="4" fill="#8bac0f"/><rect x="1260" y="580" width="4" height="4" fill="#8bac0f"/><rect x="1260" y="800" width="4" height="4" fill="#8bac0f"/><rect x="1280" y="20" width="4" height="4" fill="#8bac0f"/><rect x="1280" y="240" width="4" height="4" fill="#8bac0f"/><rect x="1280" y="460" width="4" height="4" fill="#8bac0f"/><rect x="1280" y="680" width="4" height="4" fill="#8bac0f"/><rect x="1280" y="900" width="4" height="4" fill="#8bac0f"/><rect x="1300" y="120" width="4" height="4" fill="#8bac0f"/><rect x="1300" y="340" width="4" height="4" fill="#8bac0f"/><rect x="1300" y="560" width="4" height="4" fill="#8bac0f"/><rect x="1300" y="780" width="4" height="4" fill="#8bac0f"/><rect x="1320" y="0" width="4" height="4" fill="#8bac0f"/><rect x="1320" y="220" width="4" height="4" fill="#8bac0f"/><rect x="1320" y="440" width="4" height="4" fill="#8bac0f"/><rect x="1320" y="660" width="4" height="4" fill="#8bac0f"/><rect x="1320" y="880" width="4" height="4" fill="#8bac0f"/><rect x="1340" y="100" width="4" height="4" fill="#8bac0f"/><rect x="1340" y="320" width="4" height="4" fill="#8bac0f"/><rect x="1340" y="540" width="4" height="4" fill="#8bac0f"/><rect x="1340" y="760" width="4" height="4" fill="#8bac0f"/><rect x="1340" y="980" width="4" height="4" fill="#8bac0f"/><rect x="1360" y="200" width="4" height="4" fill="#8bac0f"/><rect x="1360" y="420" width="4" height="4" fill="#8bac0f"/><rect x="1360" y="640" width="4" height="4" fill="#8bac0f"/><rect x="1360" y="860" width="4" height="4" fill="#8bac0f"/><rect x="1380" y="80" width="4" height="4" fill="#8bac0f"/><rect x="1380" y="300" width="4" height="4" fill="#8bac0f"/><rect x="1380" y="520" width="4" height="4" fill="#8bac0f"/><rect x="1380" y="740" width="4" height="4" fill="#8bac0f"/><rect x="1380" y="960" width="4" height="4" fill="#8bac0f"/><rect x="1400" y="180" width="4" height="4" fill="#8bac0f"/><rect x="1400" y="400" width="4" height="4" fill="#8bac0f"/><rect x="1400" y="620" width="4" height="4" fill="#8bac0f"/><rect x="1400" y="840" width="4" height="4" fill="#8bac0f"/><rect x="1420" y="60" width="4" height="4" fill="#8bac0f"/><rect x="1420" y="280" width="4" height="4" fill="#8bac0f"/><rect x="1420" y="500" width="4" height="4" fill="#8bac0f"/><rect x="1420" y="720" width="4" height="4" fill="#8bac0f"/><rect x="1420" y="940" width="4" height="4" fill="#8bac0f"/><rect x="1440" y="160" width="4" height="4" fill="#8bac0f"/><rect x="1440" y="380" width="4" height="4" fill="#8bac0f"/><rect x="1440" y="600" width="4" height="4" fill="#8bac0f"/><rect x="1440" y="820" width="4" height="4" fill="#8bac0f"/><rect x="1460" y="40" width="4" height="4" fill="#8bac0f"/><rect x="1460" y="260" width="4" height="4" fill="#8bac0f"/><rect x="1460" y="480" width="4" height="4" fill="#8bac0f"/><rect x="1460" y="700" width="4" height="4" fill="#8bac0f"/><rect x="1460" y="920" width="4" height="4" fill="#8bac0f"/><rect x="1480" y="140" width="4" height="4" fill="#8bac0f"/><rect x="1480" y="360" width="4" height="4" fill="#8bac0f"/><rect x="1480" y="580" width="4" height="4" fill="#8bac0f"/><rect x="1480" y="800" width="4" height="4" fill="#8bac0f"/><rect x="1500" y="20" width="4" height="4" fill="#8bac0f"/><rect x="1500" y="240" width="4" height="4" fill="#8bac0f"/><rect x="1500" y="460" width="4" height="4" fill="#8bac0f"/><rect x="1500" y="680" width="4" height="4" fill="#8bac0f"/><rect x="1500" y="900" width="4" height="4" fill="#8bac0f"/><rect x="1520" y="120" width="4" height="4" fill="#8bac0f"/><rect x="1520" y="340" width="4" height="4" fill="#8bac0f"/><rect x="1520" y="560" width="4" height="4" fill="#8bac0f"/><rect x="1520" y="780" width="4" height="4" fill="#8bac0f"/><rect x="1540" y="0" width="4" height="4" fill="#8bac0f"/><rect x="1540" y="220" width="4" height="4" fill="#8bac0f"/><rect x="1540" y="440" width="4" height="4" fill="#8bac0f"/><rect x="1540" y="660" width="4" height="4" fill="#8bac0f"/><rect x="1540" y="880" width="4" height="4" fill="#8bac0f"/><rect x="1560" y="100" width="4" height="4" fill="#8bac0f"/><rect x="1560" y="320" width="4" height="4" fill="#8bac0f"/><rect x="1560" y="540" width="4" height="4" fill="#8bac0f"/><rect x="1560" y="760" width="4" height="4" fill="#8bac0f"/><rect x="1560" y="980" width="4" height="4" fill="#8bac0f"/><rect x="1580" y="200" width="4" height="4" fill="#8bac0f"/><rect x="1580" y="420" width="4" height="4" fill="#8bac0f"/><rect x="1580" y="640" width="4" height="4" fill="#8bac0f"/><rect x="1580" y="860" width="4" height="4" fill="#8bac0f"/><rect x="1600" y="80" width="4" height="4" fill="#8bac0f"/><rect x="1600" y="300" width="4" height="4" fill="#8bac0f"/><rect x="1600" y="520" width="4" height="4" fill="#8bac0f"/><rect x="1600" y="740" width="4" height="4" fill="#8bac0f"/><rect x="1600" y="960" width="4" height="4" fill="#8bac0f"/><rect x="1620" y="180" width="4" height="4" fill="#8bac0f"/><rect x="1620" y="400" width="4" height="4" fill="#8bac0f"/><rect x="1620" y="620" width="4" height="4" fill="#8bac0f"/><rect x="1620" y="840" width="4" height="4" fill="#8bac0f"/><rect x="220" y="340" width="300" height="240" fill="#8bac0f" stroke="#0f380f" stroke-width="6"/><rect x="200" y="260" width="340" height="80" fill="#306230" stroke="#0f380f" stroke-width="6"/><rect x="200" y="260" width="20" height="80" fill="#0f380f" opacity="0.25"/><rect x="240" y="260" width="20" height="80" fill="#0f380f" opacity="0.25"/><rect x="280" y="260" width="20" height="80" fill="#0f380f" opacity="0.25"/><rect x="320" y="260" width="20" height="80" fill="#0f380f" opacity="0.25"/><rect x="360" y="260" width="20" height="80" fill="#0f380f" opacity="0.25"/><rect x="400" y="260" width="20" height="80" fill="#0f380f" opacity="0.25"/><rect x="440" y="260" width="20" height="80" fill="#0f380f" opacity="0.25"/><rect x="480" y="260" width="20" height="80" fill="#0f380f" opacity="0.25"/><rect x="520" y="260" width="20" height="80" fill="#0f380f" opacity="0.25"/><rect x="345.0" y="510" width="50" height="70" fill="#0f380f"/><rect x="240" y="370" width="50" height="40" fill="#9bbc0f" stroke="#0f380f" stroke-width="5"/><rect x="1060" y="320" width="340" height="260" fill="#8bac0f" stroke="#0f380f" stroke-width="6"/><rect x="1040" y="240" width="380" height="80" fill="#306230" stroke="#0f380f" stroke-width="6"/><rect x="1040" y="240" width="20" height="80" fill="#0f380f" opacity="0.25"/><rect x="1080" y="240" width="20" height="80" fill="#0f380f" opacity="0.25"/><rect x="1120" y="240" width="20" height="80" fill="#0f380f" opacity="0.25"/><rect x="1160" y="240" width="20" height="80" fill="#0f380f" opacity="0.25"/><rect x="1200" y="240" width="20" height="80" fill="#0f380f" opacity="0.25"/><rect x="1240" y="240" width="20" height="80" fill="#0f380f" opacity="0.25"/><rect x="1280" y="240" width="20" height="80" fill="#0f380f" opacity="0.25"/><rect x="1320" y="240" width="20" height="80" fill="#0f380f" opacity="0.25"/><rect x="1360" y="240" width="20" height="80" fill="#0f380f" opacity="0.25"/><rect x="1400" y="240" width="20" height="80" fill="#0f380f" opacity="0.25"/><rect x="1205.0" y="510" width="50" height="70" fill="#0f380f"/><rect x="1080" y="350" width="50" height="40" fill="#9bbc0f" stroke="#0f380f" stroke-width="5"/><rect x="640" y="620" width="260" height="200" fill="#8bac0f" stroke="#0f380f" stroke-width="6"/><rect x="620" y="540" width="300" height="80" fill="#0f380f" stroke="#0f380f" stroke-width="6"/><rect x="620" y="540" width="20" height="80" fill="#0f380f" opacity="0.25"/><rect x="660" y="540" width="20" height="80" fill="#0f380f" opacity="0.25"/><rect x="700" y="540" width="20" height="80" fill="#0f380f" opacity="0.25"/><rect x="740" y="540" width="20" height="80" fill="#0f380f" opacity="0.25"/><rect x="780" y="540" width="20" height="80" fill="#0f380f" opacity="0.25"/><rect x="820" y="540" width="20" height="80" fill="#0f380f" opacity="0.25"/><rect x="860" y="540" width="20" height="80" fill="#0f380f" opacity="0.25"/><rect x="900" y="540" width="20" height="80" fill="#0f380f" opacity="0.25"/><rect x="745.0" y="750" width="50" height="70" fill="#0f380f"/><rect x="660" y="650" width="50" height="40" fill="#9bbc0f" stroke="#0f380f" stroke-width="5"/><rect x="0" y="860" width="1640" height="140" fill="#8bac0f"/><rect x="0" y="880" width="20" height="20" fill="#306230"/><rect x="40" y="880" width="20" height="20" fill="#306230"/><rect x="80" y="880" width="20" height="20" fill="#306230"/><rect x="120" y="880" width="20" height="20" fill="#306230"/><rect x="160" y="880" width="20" height="20" fill="#306230"/><rect x="200" y="880" width="20" height="20" fill="#306230"/><rect x="240" y="880" width="20" height="20" fill="#306230"/><rect x="280" y="880" width="20" height="20" fill="#306230"/><rect x="320" y="880" width="20" height="20" fill="#306230"/><rect x="360" y="880" width="20" height="20" fill="#306230"/><rect x="400" y="880" width="20" height="20" fill="#306230"/><rect x="440" y="880" width="20" height="20" fill="#306230"/><rect x="480" y="880" width="20" height="20" fill="#306230"/><rect x="520" y="880" width="20" height="20" fill="#306230"/><rect x="560" y="880" width="20" height="20" fill="#306230"/><rect x="600" y="880" width="20" height="20" fill="#306230"/><rect x="640" y="880" width="20" height="20" fill="#306230"/><rect x="680" y="880" width="20" height="20" fill="#306230"/><rect x="720" y="880" width="20" height="20" fill="#306230"/><rect x="760" y="880" width="20" height="20" fill="#306230"/><rect x="800" y="880" width="20" height="20" fill="#306230"/><rect x="840" y="880" width="20" height="20" fill="#306230"/><rect x="880" y="880" width="20" height="20" fill="#306230"/><rect x="920" y="880" width="20" height="20" fill="#306230"/><rect x="960" y="880" width="20" height="20" fill="#306230"/><rect x="1000" y="880" width="20" height="20" fill="#306230"/><rect x="1040" y="880" width="20" height="20" fill="#306230"/><rect x="1080" y="880" width="20" height="20" fill="#306230"/><rect x="1120" y="880" width="20" height="20" fill="#306230"/><rect x="1160" y="880" width="20" height="20" fill="#306230"/><rect x="1200" y="880" width="20" height="20" fill="#306230"/><rect x="1240" y="880" width="20" height="20" fill="#306230"/><rect x="1280" y="880" width="20" height="20" fill="#306230"/><rect x="1320" y="880" width="20" height="20" fill="#306230"/><rect x="1360" y="880" width="20" height="20" fill="#306230"/><rect x="1400" y="880" width="20" height="20" fill="#306230"/><rect x="1440" y="880" width="20" height="20" fill="#306230"/><rect x="1480" y="880" width="20" height="20" fill="#306230"/><rect x="1520" y="880" width="20" height="20" fill="#306230"/><rect x="1560" y="880" width="20" height="20" fill="#306230"/><rect x="1600" y="880" width="20" height="20" fill="#306230"/><rect x="70" y="130" width="100" height="100" fill="#306230" stroke="#0f380f" stroke-width="6"/><rect x="110" y="230" width="20" height="40" fill="#0f380f"/><rect x="1450" y="150" width="100" height="100" fill="#306230" stroke="#0f380f" stroke-width="6"/><rect x="1490" y="250" width="20" height="40" fill="#0f380f"/><rect x="850" y="130" width="100" height="100" fill="#306230" stroke="#0f380f" stroke-width="6"/><rect x="890" y="230" width="20" height="40" fill="#0f380f"/><rect x="510" y="170" width="100" height="100" fill="#306230" stroke="#0f380f" stroke-width="6"/><rect x="550" y="270" width="20" height="40" fill="#0f380f"/><rect x="700" y="420" width="60" height="80" fill="#0f380f"/><rect x="690" y="380" width="80" height="50" fill="#306230" stroke="#0f380f" stroke-width="6"/><rect width="1640" height="1000" filter="url(#grain)"/></svg>