<svg xmlns="http://www.w3.org/2000/svg" viewBox="0 0 1640 1000" width="1640" height="1000"><defs>
  <filter id="rough" x="-5%" y="-5%" width="110%" height="110%">
    <feTurbulence type="fractalNoise" baseFrequency="0.03" numOctaves="2" seed="5" result="n"/>
    <feDisplacementMap in="SourceGraphic" in2="n" scale="4" xChannelSelector="R" yChannelSelector="G"/>
  </filter>
  <filter id="grain" x="0" y="0" width="100%" height="100%">
    <feTurbulence type="fractalNoise" baseFrequency="0.9" numOctaves="2" seed="7" stitchTiles="stitch"/>
    <feColorMatrix values="0 0 0 0 0  0 0 0 0 0  0 0 0 0 0  0 0 0 0.13 0"/>
  </filter>
  <filter id="glow" x="-50%" y="-50%" width="200%" height="200%">
    <feGaussianBlur stdDeviation="9" result="b"/>
    <feMerge><feMergeNode in="b"/><feMergeNode in="SourceGraphic"/></feMerge>
  </filter>
  <filter id="soft"><feGaussianBlur stdDeviation="14"/></filter>
</defs><rect width="1640" height="1000" fill="#9fd6ef"/><rect width="1640" height="620" fill="#9fd6ef"/><rect y="560" width="1640" height="440" fill="#2f8fb8"/><path d="M730,718 h85" stroke="#e8f6fb" stroke-width="3" opacity="0.5"/><path d="M794,635 h75" stroke="#e8f6fb" stroke-width="3" opacity="0.5"/><path d="M124,681 h34" stroke="#e8f6fb" stroke-width="3" opacity="0.5"/><path d="M1030,937 h67" stroke="#e8f6fb" stroke-width="3" opacity="0.5"/><path d="M365,938 h82" stroke="#e8f6fb" stroke-width="3" opacity="0.5"/><path d="M538,710 h70" stroke="#e8f6fb" stroke-width="3" opacity="0.5"/><path d="M1595,965 h83" stroke="#e8f6fb" stroke-width="3" opacity="0.5"/><path d="M1174,691 h67" stroke="#e8f6fb" stroke-width="3" opacity="0.5"/><path d="M702,855 h59" stroke="#e8f6fb" stroke-width="3" opacity="0.5"/><path d="M338,959 h32" stroke="#e8f6fb" stroke-width="3" opacity="0.5"/><path d="M560,732 h88" stroke="#e8f6fb" stroke-width="3" opacity="0.5"/><path d="M193,831 h87" stroke="#e8f6fb" stroke-width="3" opacity="0.5"/><path d="M1003,971 h54" stroke="#e8f6fb" stroke-width="3" opacity="0.5"/><path d="M718,748 h52" stroke="#e8f6fb" stroke-width="3" opacity="0.5"/><path d="M570,630 h89" stroke="#e8f6fb" stroke-width="3" opacity="0.5"/><path d="M1203,871 h62" stroke="#e8f6fb" stroke-width="3" opacity="0.5"/><path d="M329,690 h88" stroke="#e8f6fb" stroke-width="3" opacity="0.5"/><path d="M1351,782 h75" stroke="#e8f6fb" stroke-width="3" opacity="0.5"/><path d="M1572,617 h52" stroke="#e8f6fb" stroke-width="3" opacity="0.5"/><path d="M660,736 h62" stroke="#e8f6fb" stroke-width="3" opacity="0.5"/><path d="M483,649 h82" stroke="#e8f6fb" stroke-width="3" opacity="0.5"/><path d="M695,921 h38" stroke="#e8f6fb" stroke-width="3" opacity="0.5"/><path d="M504,797 h32" stroke="#e8f6fb" stroke-width="3" opacity="0.5"/><path d="M679,672 h54" stroke="#e8f6fb" stroke-width="3" opacity="0.5"/><path d="M481,912 h60" stroke="#e8f6fb" stroke-width="3" opacity="0.5"/><path d="M413,836 h59" stroke="#e8f6fb" stroke-width="3" opacity="0.5"/><path d="M365,911 h65" stroke="#e8f6fb" stroke-width="3" opacity="0.5"/><path d="M21,816 h54" stroke="#e8f6fb" stroke-width="3" opacity="0.5"/><path d="M142,988 h67" stroke="#e8f6fb" stroke-width="3" opacity="0.5"/><path d="M1629,791 h56" stroke="#e8f6fb" stroke-width="3" opacity="0.5"/><path d="M257,866 h59" stroke="#e8f6fb" stroke-width="3" opacity="0.5"/><path d="M296,936 h65" stroke="#e8f6fb" stroke-width="3" opacity="0.5"/><path d="M141,992 h55" stroke="#e8f6fb" stroke-width="3" opacity="0.5"/><path d="M1516,764 h33" stroke="#e8f6fb" stroke-width="3" opacity="0.5"/><path d="M901,763 h77" stroke="#e8f6fb" stroke-width="3" opacity="0.5"/><path d="M812,748 h55" stroke="#e8f6fb" stroke-width="3" opacity="0.5"/><path d="M791,892 h78" stroke="#e8f6fb" stroke-width="3" opacity="0.5"/><path d="M651,656 h31" stroke="#e8f6fb" stroke-width="3" opacity="0.5"/><path d="M984,694 h81" stroke="#e8f6fb" stroke-width="3" opacity="0.5"/><path d="M695,983 h35" stroke="#e8f6fb" stroke-width="3" opacity="0.5"/><path d="M1370,647 h45" stroke="#e8f6fb" stroke-width="3" opacity="0.5"/><path d="M672,712 h57" stroke="#e8f6fb" stroke-width="3" opacity="0.5"/><path d="M829,847 h32" stroke="#e8f6fb" stroke-width="3" opacity="0.5"/><path d="M1000,752 h67" stroke="#e8f6fb" stroke-width="3" opacity="0.5"/><path d="M493,927 h43" stroke="#e8f6fb" stroke-width="3" opacity="0.5"/><path d="M140,889 h68" stroke="#e8f6fb" stroke-width="3" opacity="0.5"/><path d="M302,736 h55" stroke="#e8f6fb" stroke-width="3" opacity="0.5"/><path d="M329,823 h55" stroke="#e8f6fb" stroke-width="3" opacity="0.5"/><path d="M949,907 h41" stroke="#e8f6fb" stroke-width="3" opacity="0.5"/><path d="M439,866 h66" stroke="#e8f6fb" stroke-width="3" opacity="0.5"/><path d="M1179,710 h43" stroke="#e8f6fb" stroke-width="3" opacity="0.5"/><path d="M78,723 h45" stroke="#e8f6fb" stroke-width="3" opacity="0.5"/><path d="M1216,736 h77" stroke="#e8f6fb" stroke-width="3" opacity="0.5"/><path d="M190,715 h56" stroke="#e8f6fb" stroke-width="3" opacity="0.5"/><path d="M381,791 h88" stroke="#e8f6fb" stroke-width="3" opacity="0.5"/><path d="M749,681 h66" stroke="#e8f6fb" stroke-width="3" opacity="0.5"/><path d="M863,931 h35" stroke="#e8f6fb" stroke-width="3" opacity="0.5"/><path d="M1203,840 h48" stroke="#e8f6fb" stroke-width="3" opacity="0.5"/><path d="M605,637 h86" stroke="#e8f6fb" stroke-width="3" opacity="0.5"/><path d="M487,768 h69" stroke="#e8f6fb" stroke-width="3" opacity="0.5"/><path d="M1218,842 h54" stroke="#e8f6fb" stroke-width="3" opacity="0.5"/><path d="M1056,812 h49" stroke="#e8f6fb" stroke-width="3" opacity="0.5"/><path d="M1362,659 h40" stroke="#e8f6fb" stroke-width="3" opacity="0.5"/><path d="M767,797 h37" stroke="#e8f6fb" stroke-width="3" opacity="0.5"/><path d="M1219,980 h64" stroke="#e8f6fb" stroke-width="3" opacity="0.5"/><path d="M955,714 h37" stroke="#e8f6fb" stroke-width="3" opacity="0.5"/><path d="M557,888 h82" stroke="#e8f6fb" stroke-width="3" opacity="0.5"/><path d="M607,737 h50" stroke="#e8f6fb" stroke-width="3" opacity="0.5"/><path d="M892,708 h61" stroke="#e8f6fb" stroke-width="3" opacity="0.5"/><path d="M1355,666 h70" stroke="#e8f6fb" stroke-width="3" opacity="0.5"/><path d="M466,680 h55" stroke="#e8f6fb" stroke-width="3" opacity="0.5"/><path d="M1031,767 h54" stroke="#e8f6fb" stroke-width="3" opacity="0.5"/><path d="M1028,800 h80" stroke="#e8f6fb" stroke-width="3" opacity="0.5"/><path d="M1598,968 h69" stroke="#e8f6fb" stroke-width="3" opacity="0.5"/><path d="M256,772 h48" stroke="#e8f6fb" stroke-width="3" opacity="0.5"/><path d="M874,642 h86" stroke="#e8f6fb" stroke-width="3" opacity="0.5"/><path d="M416,706 h83" stroke="#e8f6fb" stroke-width="3" opacity="0.5"/><path d="M687,615 h37" stroke="#e8f6fb" stroke-width="3" opacity="0.5"/><path d="M1028,603 h73" stroke="#e8f6fb" stroke-width="3" opacity="0.5"/><path d="M182,632 h61" stroke="#e8f6fb" stroke-width="3" opacity="0.5"/><rect x="60" y="516" width="44" height="104" fill="#f1e3c8"/><path d="M56,516 l26,-26 l26,26Z" fill="#c8583e"/><rect x="100" y="500" width="44" height="120" fill="#e8c6a8"/><path d="M96,500 l26,-26 l26,26Z" fill="#c8583e"/><rect x="140" y="400" width="44" height="220" fill="#f1e3c8"/><path d="M136,400 l26,-26 l26,26Z" fill="#c8583e"/><rect x="180" y="472" width="44" height="148" fill="#d9b690"/><path d="M176,472 l26,-26 l26,26Z" fill="#c8583e"/><rect x="220" y="531" width="44" height="89" fill="#d9b690"/><path d="M216,531 l26,-26 l26,26Z" fill="#c8583e"/><rect x="260" y="531" width="44" height="89" fill="#f1e3c8"/><path d="M256,531 l26,-26 l26,26Z" fill="#c8583e"/><rect x="300" y="534" width="44" height="86" fill="#f1e3c8"/><path d="M296,534 l26,-26 l26,26Z" fill="#c8583e"/><rect x="340" y="453" width="44" height="167" fill="#e8c6a8"/><path d="M336,453 l26,-26 l26,26Z" fill="#c8583e"/><rect x="380" y="442" width="44" height="178" fill="#d9b690"/><path d="M376,442 l26,-26 l26,26Z" fill="#c8583e"/><rect x="420" y="483" width="44" height="137" fill="#f6f0e4"/><path d="M416,483 l26,-26 l26,26Z" fill="#c8583e"/><rect x="460" y="483" width="44" height="137" fill="#d9b690"/><path d="M456,483 l26,-26 l26,26Z" fill="#c8583e"/><rect x="500" y="458" width="44" height="162" fill="#f1e3c8"/><path d="M496,458 l26,-26 l26,26Z" fill="#c8583e"/><rect x="540" y="466" width="44" height="154" fill="#f1e3c8"/><path d="M536,466 l26,-26 l26,26Z" fill="#c8583e"/><rect x="580" y="504" width="44" height="116" fill="#d9b690"/><path d="M576,504 l26,-26 l26,26Z" fill="#c8583e"/><g transform="translate(1100 250) rotate(-6)"><path d="M-150 0 C-100 -24 120 -24 170 0 C120 20 -100 20 -150 0Z" fill="#c8302a"/><rect x="-70" y="-60" width="200" height="14" fill="#c8302a"/><rect x="-70" y="38" width="200" height="14" fill="#a82420"/><line x1="-20" y1="-46" x2="-20" y2="40" stroke="#555" stroke-width="4"/><line x1="90" y1="-46" x2="90" y2="40" stroke="#555" stroke-width="4"/><ellipse cx="175" cy="0" rx="8" ry="46" fill="#ddd" opacity="0.6"/><path d="M-150 0 l-30 -34 l24 0 l26 26Z" fill="#c8302a"/><ellipse cx="0" cy="80" rx="80" ry="12" fill="#eee"/></g><ellipse cx="300" cy="140" rx="160.0" ry="46" fill="#fff"/><ellipse cx="330" cy="120" rx="107" ry="53" fill="#fff"/><ellipse cx="800" cy="90" rx="120.0" ry="34" fill="#fff"/><ellipse cx="830" cy="70" rx="80" ry="40" fill="#fff"/><rect width="1640" height="1000" filter="url(#grain)"/></svg>