<svg xmlns="http://www.w3.org/2000/svg" viewBox="0 0 1640 1000" width="1640" height="1000"><defs>
  <filter id="rough" x="-5%" y="-5%" width="110%" height="110%">
    <feTurbulence type="fractalNoise" baseFrequency="0.03" numOctaves="2" seed="5" result="n"/>
    <feDisplacementMap in="SourceGraphic" in2="n" scale="4" xChannelSelector="R" yChannelSelector="G"/>
  </filter>
  <filter id="grain" x="0" y="0" width="100%" height="100%">
    <feTurbulence type="fractalNoise" baseFrequency="0.9" numOctaves="2" seed="7" stitchTiles="stitch"/>
    <feColorMatrix values="0 0 0 0 0  0 0 0 0 0  0 0 0 0 0  0 0 0 0.13 0"/>
  </filter>
  <filter id="glow" x="-50%" y="-50%" width="200%" height="200%">
    <feGaussianBlur stdDeviation="9" result="b"/>
    <feMerge><feMergeNode in="b"/><feMergeNode in="SourceGraphic"/></feMerge>
  </filter>
  <filter id="soft"><feGaussianBlur stdDeviation="14"/></filter>
</defs><rect width="1640" height="1000" fill="#15204a"/><rect width="1640" height="620" fill="#15204a"/><circle cx="63" cy="390" r="0.9" fill="#f8f2dc" opacity="0.65"/><circle cx="1102" cy="444" r="1.5" fill="#f8f2dc" opacity="0.67"/><circle cx="31" cy="242" r="1.3" fill="#f8f2dc" opacity="0.90"/><circle cx="897" cy="423" r="1.5" fill="#f8f2dc" opacity="0.46"/><circle cx="1395" cy="459" r="1.4" fill="#f8f2dc" opacity="0.41"/><circle cx="840" cy="278" r="2.1" fill="#f8f2dc" opacity="0.74"/><circle cx="831" cy="322" r="1.4" fill="#f8f2dc" opacity="0.38"/><circle cx="100" cy="527" r="2.3" fill="#f8f2dc" opacity="0.54"/><circle cx="1458" cy="292" r="0.8" fill="#f8f2dc" opacity="0.91"/><circle cx="958" cy="522" r="2.0" fill="#f8f2dc" opacity="0.41"/><circle cx="1021" cy="441" r="2.4" fill="#f8f2dc" opacity="0.57"/><circle cx="867" cy="393" r="0.9" fill="#f8f2dc" opacity="0.90"/><circle cx="1281" cy="28" r="1.8" fill="#f8f2dc" opacity="0.59"/><circle cx="305" cy="339" r="2.5" fill="#f8f2dc" opacity="0.71"/><circle cx="186" cy="277" r="2.2" fill="#f8f2dc" opacity="0.97"/><circle cx="1173" cy="23" r="2.5" fill="#f8f2dc" opacity="0.74"/><circle cx="137" cy="71" r="0.8" fill="#f8f2dc" opacity="0.78"/><circle cx="253" cy="452" r="0.8" fill="#f8f2dc" opacity="0.70"/><circle cx="727" cy="21" r="0.6" fill="#f8f2dc" opacity="0.94"/><circle cx="1602" cy="70" r="2.1" fill="#f8f2dc" opacity="0.99"/><circle cx="1482" cy="496" r="1.3" fill="#f8f2dc" opacity="0.82"/><circle cx="817" cy="525" r="2.0" fill="#f8f2dc" opacity="0.90"/><circle cx="1406" cy="216" r="2.0" fill="#f8f2dc" opacity="0.41"/><circle cx="338" cy="524" r="1.4" fill="#f8f2dc" opacity="0.80"/><circle cx="944" cy="146" r="1.8" fill="#f8f2dc" opacity="0.94"/><circle cx="537" cy="194" r="1.0" fill="#f8f2dc" opacity="0.47"/><circle cx="1357" cy="395" r="2.5" fill="#f8f2dc" opacity="0.79"/><circle cx="1572" cy="124" r="1.0" fill="#f8f2dc" opacity="0.49"/><circle cx="629" cy="554" r="1.0" fill="#f8f2dc" opacity="0.65"/><circle cx="100" cy="15" r="1.7" fill="#f8f2dc" opacity="0.75"/><circle cx="838" cy="512" r="2.3" fill="#f8f2dc" opacity="0.97"/><circle cx="949" cy="148" r="0.9" fill="#f8f2dc" opacity="0.85"/><circle cx="254" cy="3" r="2.0" fill="#f8f2dc" opacity="0.43"/><circle cx="1021" cy="113" r="1.5" fill="#f8f2dc" opacity="0.36"/><circle cx="617" cy="184" r="1.1" fill="#f8f2dc" opacity="0.44"/><circle cx="944" cy="388" r="1.0" fill="#f8f2dc" opacity="0.38"/><circle cx="440" cy="392" r="1.1" fill="#f8f2dc" opacity="0.77"/><circle cx="121" cy="394" r="0.9" fill="#f8f2dc" opacity="0.50"/><circle cx="1197" cy="266" r="1.9" fill="#f8f2dc" opacity="0.54"/><circle cx="1096" cy="167" r="1.6" fill="#f8f2dc" opacity="0.64"/><circle cx="1496" cy="421" r="1.7" fill="#f8f2dc" opacity="0.90"/><circle cx="1000" cy="405" r="1.6" fill="#f8f2dc" opacity="0.72"/><circle cx="350" cy="521" r="1.9" fill="#f8f2dc" opacity="0.88"/><circle cx="994" cy="14" r="0.8" fill="#f8f2dc" opacity="0.92"/><circle cx="1147" cy="506" r="2.4" fill="#f8f2dc" opacity="0.50"/><circle cx="1616" cy="342" r="2.1" fill="#f8f2dc" opacity="0.69"/><circle cx="420" cy="272" r="1.5" fill="#f8f2dc" opacity="0.54"/><circle cx="561" cy="248" r="1.1" fill="#f8f2dc" opacity="0.44"/><circle cx="1319" cy="201" r="1.3" fill="#f8f2dc" opacity="0.86"/><circle cx="1145" cy="251" r="1.2" fill="#f8f2dc" opacity="0.87"/><circle cx="388" cy="259" r="1.3" fill="#f8f2dc" opacity="1.00"/><circle cx="393" cy="332" r="1.7" fill="#f8f2dc" opacity="0.38"/><circle cx="298" cy="496" r="2.2" fill="#f8f2dc" opacity="0.49"/><circle cx="293" cy="525" r="1.8" fill="#f8f2dc" opacity="0.82"/><circle cx="1488" cy="146" r="1.6" fill="#f8f2dc" opacity="0.94"/><circle cx="305" cy="143" r="2.4" fill="#f8f2dc" opacity="0.90"/><circle cx="845" cy="75" r="2.3" fill="#f8f2dc" opacity="0.55"/><circle cx="1242" cy="143" r="0.9" fill="#f8f2dc" opacity="0.80"/><circle cx="645" cy="211" r="1.5" fill="#f8f2dc" opacity="0.65"/><circle cx="772" cy="363" r="0.8" fill="#f8f2dc" opacity="0.79"/><circle cx="798" cy="458" r="1.2" fill="#f8f2dc" opacity="0.78"/><circle cx="337" cy="391" r="2.0" fill="#f8f2dc" opacity="0.70"/><circle cx="786" cy="532" r="1.3" fill="#f8f2dc" opacity="0.40"/><circle cx="543" cy="24" r="2.4" fill="#f8f2dc" opacity="0.89"/><circle cx="304" cy="352" r="1.0" fill="#f8f2dc" opacity="0.91"/><circle cx="680" cy="33" r="1.9" fill="#f8f2dc" opacity="0.40"/><circle cx="1467" cy="520" r="1.8" fill="#f8f2dc" opacity="0.51"/><circle cx="1270" cy="22" r="0.8" fill="#f8f2dc" opacity="0.55"/><circle cx="118" cy="489" r="1.9" fill="#f8f2dc" opacity="0.88"/><circle cx="1078" cy="126" r="1.2" fill="#f8f2dc" opacity="0.75"/><circle cx="1298" cy="350" r="1.2" fill="#f8f2dc" opacity="0.87"/><circle cx="673" cy="352" r="2.3" fill="#f8f2dc" opacity="0.78"/><circle cx="754" cy="331" r="1.0" fill="#f8f2dc" opacity="0.63"/><circle cx="1366" cy="272" r="0.6" fill="#f8f2dc" opacity="0.88"/><circle cx="254" cy="18" r="1.8" fill="#f8f2dc" opacity="0.85"/><circle cx="184" cy="249" r="1.5" fill="#f8f2dc" opacity="0.43"/><circle cx="1032" cy="141" r="2.0" fill="#f8f2dc" opacity="0.68"/><circle cx="860" cy="129" r="2.1" fill="#f8f2dc" opacity="0.36"/><circle cx="514" cy="57" r="0.8" fill="#f8f2dc" opacity="0.36"/><circle cx="858" cy="40" r="0.8" fill="#f8f2dc" opacity="0.63"/><circle cx="1115" cy="113" r="1.9" fill="#f8f2dc" opacity="0.71"/><circle cx="1516" cy="454" r="2.6" fill="#f8f2dc" opacity="0.58"/><circle cx="1452" cy="180" r="1.2" fill="#f8f2dc" opacity="0.63"/><circle cx="38" cy="405" r="0.8" fill="#f8f2dc" opacity="0.75"/><circle cx="97" cy="239" r="1.1" fill="#f8f2dc" opacity="0.96"/><circle cx="489" cy="200" r="1.2" fill="#f8f2dc" opacity="0.43"/><circle cx="1056" cy="169" r="1.1" fill="#f8f2dc" opacity="0.55"/><circle cx="579" cy="444" r="1.0" fill="#f8f2dc" opacity="0.43"/><circle cx="542" cy="319" r="1.2" fill="#f8f2dc" opacity="0.42"/><circle cx="586" cy="538" r="2.4" fill="#f8f2dc" opacity="0.64"/><circle cx="710" cy="97" r="1.9" fill="#f8f2dc" opacity="0.82"/><circle cx="424" cy="350" r="0.8" fill="#f8f2dc" opacity="0.55"/><circle cx="474" cy="446" r="1.8" fill="#f8f2dc" opacity="0.68"/><circle cx="718" cy="309" r="1.6" fill="#f8f2dc" opacity="0.52"/><circle cx="1363" cy="446" r="1.4" fill="#f8f2dc" opacity="0.61"/><circle cx="1519" cy="12" r="2.1" fill="#f8f2dc" opacity="0.46"/><circle cx="312" cy="196" r="1.8" fill="#f8f2dc" opacity="0.56"/><circle cx="849" cy="287" r="2.4" fill="#f8f2dc" opacity="0.73"/><circle cx="443" cy="355" r="1.7" fill="#f8f2dc" opacity="0.55"/><circle cx="1188" cy="5" r="2.6" fill="#f8f2dc" opacity="0.92"/><circle cx="99" cy="398" r="0.9" fill="#f8f2dc" opacity="0.99"/><circle cx="742" cy="418" r="1.1" fill="#f8f2dc" opacity="0.78"/><circle cx="47" cy="447" r="1.1" fill="#f8f2dc" opacity="0.46"/><circle cx="724" cy="281" r="0.7" fill="#f8f2dc" opacity="0.46"/><circle cx="626" cy="305" r="2.0" fill="#f8f2dc" opacity="0.44"/><circle cx="1349" cy="201" r="2.6" fill="#f8f2dc" opacity="0.59"/><circle cx="734" cy="201" r="0.8" fill="#f8f2dc" opacity="0.95"/><circle cx="970" cy="424" r="0.9" fill="#f8f2dc" opacity="0.67"/><circle cx="468" cy="152" r="1.4" fill="#f8f2dc" opacity="0.76"/><circle cx="750" cy="391" r="2.6" fill="#f8f2dc" opacity="0.73"/><circle cx="1311" cy="533" r="2.5" fill="#f8f2dc" opacity="0.58"/><circle cx="1374" cy="391" r="0.6" fill="#f8f2dc" opacity="0.88"/><circle cx="1472" cy="502" r="1.3" fill="#f8f2dc" opacity="0.82"/><circle cx="1357" cy="249" r="1.9" fill="#f8f2dc" opacity="0.60"/><circle cx="1510" cy="294" r="1.1" fill="#f8f2dc" opacity="0.63"/><circle cx="963" cy="211" r="1.3" fill="#f8f2dc" opacity="0.76"/><circle cx="523" cy="273" r="0.8" fill="#f8f2dc" opacity="0.56"/><circle cx="187" cy="270" r="1.3" fill="#f8f2dc" opacity="0.60"/><circle cx="50" cy="554" r="1.0" fill="#f8f2dc" opacity="0.36"/><circle cx="958" cy="22" r="1.7" fill="#f8f2dc" opacity="0.94"/><circle cx="95" cy="266" r="2.3" fill="#f8f2dc" opacity="0.50"/><circle cx="216" cy="33" r="2.0" fill="#f8f2dc" opacity="0.85"/><circle cx="700" cy="195" r="2.6" fill="#f8f2dc" opacity="0.51"/><circle cx="1312" cy="452" r="1.5" fill="#f8f2dc" opacity="0.86"/><circle cx="536" cy="505" r="2.1" fill="#f8f2dc" opacity="0.76"/><circle cx="1377" cy="378" r="2.3" fill="#f8f2dc" opacity="0.58"/><circle cx="615" cy="529" r="1.5" fill="#f8f2dc" opacity="0.55"/><circle cx="1325" cy="197" r="1.4" fill="#f8f2dc" opacity="0.72"/><circle cx="144" cy="471" r="1.8" fill="#f8f2dc" opacity="0.38"/><circle cx="154" cy="165" r="1.5" fill="#f8f2dc" opacity="0.87"/><circle cx="1313" cy="415" r="2.1" fill="#f8f2dc" opacity="0.68"/><circle cx="143" cy="196" r="2.1" fill="#f8f2dc" opacity="0.37"/><circle cx="396" cy="9" r="1.3" fill="#f8f2dc" opacity="0.56"/><circle cx="786" cy="99" r="1.7" fill="#f8f2dc" opacity="0.43"/><circle cx="1294" cy="468" r="1.4" fill="#f8f2dc" opacity="0.93"/><circle cx="1090" cy="313" r="1.9" fill="#f8f2dc" opacity="0.64"/><circle cx="227" cy="503" r="1.1" fill="#f8f2dc" opacity="0.92"/><circle cx="628" cy="308" r="1.8" fill="#f8f2dc" opacity="0.58"/><circle cx="1626" cy="475" r="1.4" fill="#f8f2dc" opacity="0.57"/><circle cx="1455" cy="526" r="1.3" fill="#f8f2dc" opacity="0.43"/><circle cx="878" cy="259" r="1.5" fill="#f8f2dc" opacity="0.74"/><circle cx="23" cy="317" r="2.0" fill="#f8f2dc" opacity="0.71"/><circle cx="3" cy="318" r="2.4" fill="#f8f2dc" opacity="0.79"/><circle cx="846" cy="211" r="1.0" fill="#f8f2dc" opacity="0.65"/><circle cx="1572" cy="84" r="1.8" fill="#f8f2dc" opacity="0.69"/><circle cx="149" cy="136" r="1.1" fill="#f8f2dc" opacity="0.41"/><circle cx="153" cy="464" r="1.2" fill="#f8f2dc" opacity="0.79"/><circle cx="801" cy="289" r="1.5" fill="#f8f2dc" opacity="0.37"/><circle cx="118" cy="70" r="2.2" fill="#f8f2dc" opacity="0.80"/><circle cx="1576" cy="387" r="1.1" fill="#f8f2dc" opacity="0.73"/><circle cx="1088" cy="156" r="1.4" fill="#f8f2dc" opacity="0.87"/><circle cx="339" cy="17" r="2.4" fill="#f8f2dc" opacity="0.57"/><circle cx="995" cy="545" r="1.0" fill="#f8f2dc" opacity="0.52"/><circle cx="551" cy="157" r="1.6" fill="#f8f2dc" opacity="0.36"/><circle cx="1323" cy="559" r="1.0" fill="#f8f2dc" opacity="0.61"/><circle cx="615" cy="395" r="1.4" fill="#f8f2dc" opacity="0.91"/><circle cx="1554" cy="147" r="0.8" fill="#f8f2dc" opacity="0.74"/><circle cx="102" cy="232" r="1.0" fill="#f8f2dc" opacity="0.89"/><circle cx="663" cy="467" r="1.8" fill="#f8f2dc" opacity="0.83"/><circle cx="1092" cy="440" r="2.1" fill="#f8f2dc" opacity="0.87"/><circle cx="639" cy="98" r="1.1" fill="#f8f2dc" opacity="0.88"/><circle cx="191" cy="427" r="0.7" fill="#f8f2dc" opacity="0.36"/><circle cx="1204" cy="408" r="2.2" fill="#f8f2dc" opacity="0.59"/><circle cx="1122" cy="412" r="1.1" fill="#f8f2dc" opacity="0.43"/><circle cx="99" cy="171" r="2.2" fill="#f8f2dc" opacity="0.50"/><circle cx="1368" cy="364" r="2.5" fill="#f8f2dc" opacity="0.53"/><circle cx="1594" cy="435" r="0.7" fill="#f8f2dc" opacity="0.53"/><circle cx="189" cy="186" r="1.8" fill="#f8f2dc" opacity="0.98"/><circle cx="1407" cy="177" r="1.8" fill="#f8f2dc" opacity="0.68"/><circle cx="31" cy="158" r="1.6" fill="#f8f2dc" opacity="0.68"/><circle cx="1177" cy="169" r="2.6" fill="#f8f2dc" opacity="0.95"/><circle cx="488" cy="74" r="1.0" fill="#f8f2dc" opacity="0.58"/><circle cx="788" cy="243" r="1.8" fill="#f8f2dc" opacity="0.82"/><circle cx="17" cy="72" r="1.5" fill="#f8f2dc" opacity="0.68"/><circle cx="1223" cy="421" r="1.4" fill="#f8f2dc" opacity="0.77"/><circle cx="483" cy="286" r="2.3" fill="#f8f2dc" opacity="0.83"/><circle cx="33" cy="406" r="1.8" fill="#f8f2dc" opacity="0.93"/><circle cx="92" cy="0" r="1.2" fill="#f8f2dc" opacity="0.99"/><circle cx="566" cy="310" r="1.0" fill="#f8f2dc" opacity="0.68"/><circle cx="1251" cy="178" r="0.8" fill="#f8f2dc" opacity="0.74"/><circle cx="120" cy="17" r="0.9" fill="#f8f2dc" opacity="0.58"/><circle cx="269" cy="539" r="2.0" fill="#f8f2dc" opacity="0.85"/><circle cx="1120" cy="178" r="0.6" fill="#f8f2dc" opacity="0.36"/><circle cx="234" cy="205" r="1.7" fill="#f8f2dc" opacity="0.84"/><circle cx="1525" cy="470" r="1.8" fill="#f8f2dc" opacity="0.81"/><circle cx="1571" cy="527" r="1.9" fill="#f8f2dc" opacity="0.80"/><circle cx="1374" cy="485" r="1.7" fill="#f8f2dc" opacity="0.72"/><circle cx="1582" cy="163" r="1.3" fill="#f8f2dc" opacity="1.00"/><circle cx="841" cy="334" r="1.4" fill="#f8f2dc" opacity="0.35"/><circle cx="948" cy="447" r="1.5" fill="#f8f2dc" opacity="0.43"/><circle cx="137" cy="28" r="2.3" fill="#f8f2dc" opacity="0.75"/><circle cx="1310" cy="462" r="0.7" fill="#f8f2dc" opacity="0.71"/><circle cx="264" cy="161" r="1.0" fill="#f8f2dc" opacity="0.69"/><circle cx="533" cy="48" r="2.2" fill="#f8f2dc" opacity="0.90"/><circle cx="897" cy="496" r="1.7" fill="#f8f2dc" opacity="0.46"/><circle cx="1325" cy="305" r="1.4" fill="#f8f2dc" opacity="0.41"/><circle cx="1372" cy="155" r="2.6" fill="#f8f2dc" opacity="0.50"/><circle cx="453" cy="353" r="2.0" fill="#f8f2dc" opacity="0.95"/><circle cx="489" cy="61" r="2.2" fill="#f8f2dc" opacity="0.58"/><circle cx="180" cy="168" r="1.3" fill="#f8f2dc" opacity="0.37"/><circle cx="1621" cy="472" r="1.7" fill="#f8f2dc" opacity="0.64"/><circle cx="56" cy="305" r="1.3" fill="#f8f2dc" opacity="0.88"/><circle cx="257" cy="161" r="2.1" fill="#f8f2dc" opacity="0.99"/><circle cx="877" cy="183" r="2.0" fill="#f8f2dc" opacity="0.98"/><circle cx="48" cy="111" r="0.9" fill="#f8f2dc" opacity="0.72"/><circle cx="1377" cy="188" r="2.2" fill="#f8f2dc" opacity="0.36"/><circle cx="146" cy="120" r="2.3" fill="#f8f2dc" opacity="0.74"/><circle cx="101" cy="393" r="2.4" fill="#f8f2dc" opacity="0.64"/><circle cx="794" cy="495" r="1.0" fill="#f8f2dc" opacity="0.53"/><circle cx="1367" cy="142" r="2.1" fill="#f8f2dc" opacity="0.40"/><circle cx="334" cy="246" r="1.6" fill="#f8f2dc" opacity="0.54"/><circle cx="134" cy="48" r="2.3" fill="#f8f2dc" opacity="0.55"/><circle cx="568" cy="429" r="2.0" fill="#f8f2dc" opacity="0.64"/><circle cx="411" cy="257" r="2.3" fill="#f8f2dc" opacity="0.75"/><circle cx="439" cy="186" r="2.1" fill="#f8f2dc" opacity="0.94"/><circle cx="508" cy="241" r="1.1" fill="#f8f2dc" opacity="0.72"/><circle cx="883" cy="428" r="2.4" fill="#f8f2dc" opacity="0.90"/><circle cx="1519" cy="287" r="0.8" fill="#f8f2dc" opacity="0.87"/><circle cx="82" cy="59" r="1.9" fill="#f8f2dc" opacity="0.80"/><circle cx="1315" cy="147" r="2.1" fill="#f8f2dc" opacity="0.64"/><circle cx="30" cy="409" r="1.9" fill="#f8f2dc" opacity="0.59"/><circle cx="685" cy="75" r="2.2" fill="#f8f2dc" opacity="0.51"/><circle cx="354" cy="441" r="1.4" fill="#f8f2dc" opacity="0.75"/><circle cx="855" cy="277" r="1.8" fill="#f8f2dc" opacity="0.66"/><circle cx="126" cy="282" r="1.7" fill="#f8f2dc" opacity="0.36"/><circle cx="4" cy="547" r="1.3" fill="#f8f2dc" opacity="0.42"/><circle cx="160" cy="248" r="2.4" fill="#f8f2dc" opacity="0.89"/><circle cx="812" cy="417" r="2.0" fill="#f8f2dc" opacity="0.83"/><circle cx="1461" cy="204" r="1.6" fill="#f8f2dc" opacity="0.83"/><circle cx="1224" cy="463" r="0.8" fill="#f8f2dc" opacity="0.79"/><circle cx="1263" cy="350" r="1.8" fill="#f8f2dc" opacity="0.55"/><circle cx="583" cy="128" r="0.6" fill="#f8f2dc" opacity="0.39"/><circle cx="116" cy="558" r="1.7" fill="#f8f2dc" opacity="0.95"/><circle cx="762" cy="374" r="2.1" fill="#f8f2dc" opacity="0.38"/><circle cx="991" cy="51" r="0.8" fill="#f8f2dc" opacity="0.52"/><circle cx="1448" cy="428" r="0.9" fill="#f8f2dc" opacity="0.54"/><circle cx="595" cy="126" r="1.3" fill="#f8f2dc" opacity="0.60"/><circle cx="1279" cy="536" r="1.0" fill="#f8f2dc" opacity="0.79"/><circle cx="326" cy="545" r="2.3" fill="#f8f2dc" opacity="0.78"/><circle cx="1221" cy="185" r="0.7" fill="#f8f2dc" opacity="0.77"/><circle cx="33" cy="508" r="2.6" fill="#f8f2dc" opacity="0.87"/><circle cx="326" cy="52" r="2.0" fill="#f8f2dc" opacity="0.94"/><circle cx="1148" cy="270" r="1.2" fill="#f8f2dc" opacity="0.75"/><circle cx="575" cy="87" r="1.5" fill="#f8f2dc" opacity="0.71"/><circle cx="1116" cy="389" r="1.2" fill="#f8f2dc" opacity="0.66"/><circle cx="1228" cy="516" r="2.0" fill="#f8f2dc" opacity="0.68"/><circle cx="32" cy="255" r="1.6" fill="#f8f2dc" opacity="0.71"/><circle cx="892" cy="257" r="1.4" fill="#f8f2dc" opacity="0.70"/><circle cx="522" cy="443" r="1.3" fill="#f8f2dc" opacity="0.93"/><circle cx="1554" cy="406" r="0.8" fill="#f8f2dc" opacity="0.88"/><circle cx="1404" cy="24" r="2.1" fill="#f8f2dc" opacity="0.84"/><circle cx="585" cy="155" r="0.6" fill="#f8f2dc" opacity="0.94"/><circle cx="593" cy="428" r="1.0" fill="#f8f2dc" opacity="0.85"/><circle cx="464" cy="317" r="1.1" fill="#f8f2dc" opacity="0.60"/><circle cx="1041" cy="93" r="1.2" fill="#f8f2dc" opacity="0.60"/><circle cx="638" cy="218" r="1.1" fill="#f8f2dc" opacity="0.43"/><circle cx="1222" cy="279" r="2.2" fill="#f8f2dc" opacity="0.48"/><circle cx="1627" cy="46" r="0.6" fill="#f8f2dc" opacity="0.98"/><circle cx="554" cy="284" r="1.4" fill="#f8f2dc" opacity="0.49"/><circle cx="1535" cy="525" r="1.6" fill="#f8f2dc" opacity="0.71"/><circle cx="640" cy="422" r="1.8" fill="#f8f2dc" opacity="0.65"/><circle cx="139" cy="485" r="1.9" fill="#f8f2dc" opacity="0.55"/><circle cx="1213" cy="324" r="0.8" fill="#f8f2dc" opacity="0.44"/><circle cx="104" cy="376" r="1.1" fill="#f8f2dc" opacity="0.87"/><circle cx="1541" cy="294" r="1.3" fill="#f8f2dc" opacity="0.54"/><circle cx="619" cy="330" r="1.3" fill="#f8f2dc" opacity="0.49"/><circle cx="716" cy="109" r="1.9" fill="#f8f2dc" opacity="0.73"/><circle cx="124" cy="372" r="2.1" fill="#f8f2dc" opacity="0.47"/><circle cx="1023" cy="382" r="1.2" fill="#f8f2dc" opacity="0.84"/><circle cx="81" cy="114" r="1.2" fill="#f8f2dc" opacity="0.54"/><circle cx="1409" cy="210" r="1.8" fill="#f8f2dc" opacity="0.47"/><circle cx="1242" cy="314" r="1.6" fill="#f8f2dc" opacity="0.73"/><circle cx="750" cy="317" r="0.9" fill="#f8f2dc" opacity="0.80"/><circle cx="99" cy="140" r="1.4" fill="#f8f2dc" opacity="0.41"/><circle cx="452" cy="223" r="2.0" fill="#f8f2dc" opacity="0.60"/><circle cx="1328" cy="329" r="2.1" fill="#f8f2dc" opacity="0.68"/><circle cx="581" cy="443" r="2.4" fill="#f8f2dc" opacity="0.47"/><circle cx="77" cy="522" r="1.6" fill="#f8f2dc" opacity="0.72"/><circle cx="744" cy="239" r="1.6" fill="#f8f2dc" opacity="0.78"/><circle cx="1071" cy="374" r="2.4" fill="#f8f2dc" opacity="0.70"/><circle cx="1433" cy="71" r="0.8" fill="#f8f2dc" opacity="0.38"/><circle cx="921" cy="214" r="0.9" fill="#f8f2dc" opacity="0.99"/><circle cx="1175" cy="361" r="0.9" fill="#f8f2dc" opacity="0.36"/><circle cx="161" cy="438" r="1.0" fill="#f8f2dc" opacity="0.50"/><circle cx="1206" cy="247" r="1.3" fill="#f8f2dc" opacity="0.83"/><circle cx="605" cy="527" r="0.8" fill="#f8f2dc" opacity="0.74"/><circle cx="693" cy="169" r="0.6" fill="#f8f2dc" opacity="0.49"/><circle cx="738" cy="390" r="1.1" fill="#f8f2dc" opacity="0.61"/><circle cx="865" cy="211" r="1.4" fill="#f8f2dc" opacity="0.52"/><circle cx="726" cy="4" r="2.0" fill="#f8f2dc" opacity="0.73"/><circle cx="1128" cy="337" r="1.9" fill="#f8f2dc" opacity="0.94"/><circle cx="1037" cy="232" r="2.0" fill="#f8f2dc" opacity="0.50"/><circle cx="1116" cy="418" r="1.4" fill="#f8f2dc" opacity="0.89"/><circle cx="1160" cy="430" r="2.5" fill="#f8f2dc" opacity="0.66"/><circle cx="111" cy="228" r="1.5" fill="#f8f2dc" opacity="0.88"/><circle cx="173" cy="160" r="1.8" fill="#f8f2dc" opacity="0.63"/><circle cx="972" cy="310" r="1.7" fill="#f8f2dc" opacity="0.65"/><circle cx="1268" cy="493" r="1.5" fill="#f8f2dc" opacity="0.54"/><circle cx="1554" cy="222" r="1.3" fill="#f8f2dc" opacity="0.93"/><circle cx="317" cy="168" r="1.8" fill="#f8f2dc" opacity="0.89"/><circle cx="262" cy="354" r="0.7" fill="#f8f2dc" opacity="0.46"/><circle cx="957" cy="204" r="2.3" fill="#f8f2dc" opacity="0.57"/><circle cx="1533" cy="137" r="1.4" fill="#f8f2dc" opacity="0.86"/><circle cx="1411" cy="162" r="2.0" fill="#f8f2dc" opacity="0.59"/><circle cx="492" cy="316" r="2.2" fill="#f8f2dc" opacity="0.44"/><circle cx="449" cy="253" r="1.1" fill="#f8f2dc" opacity="0.45"/><circle cx="446" cy="445" r="1.0" fill="#f8f2dc" opacity="0.70"/><circle cx="906" cy="392" r="2.6" fill="#f8f2dc" opacity="0.66"/><circle cx="1399" cy="526" r="2.3" fill="#f8f2dc" opacity="0.42"/><circle cx="959" cy="307" r="1.9" fill="#f8f2dc" opacity="0.73"/><circle cx="651" cy="232" r="2.1" fill="#f8f2dc" opacity="0.69"/><circle cx="653" cy="355" r="1.7" fill="#f8f2dc" opacity="0.87"/><circle cx="1430" cy="155" r="2.3" fill="#f8f2dc" opacity="0.45"/><circle cx="240" cy="180" r="1.5" fill="#f8f2dc" opacity="0.91"/><circle cx="587" cy="212" r="2.2" fill="#f8f2dc" opacity="0.58"/><circle cx="189" cy="161" r="1.0" fill="#f8f2dc" opacity="0.94"/><circle cx="934" cy="309" r="1.0" fill="#f8f2dc" opacity="0.91"/><circle cx="202" cy="455" r="1.2" fill="#f8f2dc" opacity="0.88"/><circle cx="772" cy="270" r="0.8" fill="#f8f2dc" opacity="0.76"/><circle cx="1579" cy="259" r="1.7" fill="#f8f2dc" opacity="0.85"/><circle cx="147" cy="373" r="1.4" fill="#f8f2dc" opacity="0.95"/><circle cx="494" cy="39" r="2.6" fill="#f8f2dc" opacity="0.84"/><circle cx="1482" cy="190" r="2.6" fill="#f8f2dc" opacity="0.90"/><circle cx="414" cy="517" r="1.5" fill="#f8f2dc" opacity="0.48"/><circle cx="1390" cy="444" r="1.9" fill="#f8f2dc" opacity="0.43"/><circle cx="1610" cy="501" r="2.4" fill="#f8f2dc" opacity="0.99"/><circle cx="541" cy="441" r="1.2" fill="#f8f2dc" opacity="0.84"/><circle cx="1016" cy="243" r="1.7" fill="#f8f2dc" opacity="1.00"/><circle cx="970" cy="265" r="0.9" fill="#f8f2dc" opacity="0.65"/><circle cx="1546" cy="317" r="1.7" fill="#f8f2dc" opacity="0.99"/><circle cx="1192" cy="459" r="1.5" fill="#f8f2dc" opacity="0.80"/><circle cx="1313" cy="519" r="1.7" fill="#f8f2dc" opacity="0.37"/><circle cx="565" cy="296" r="0.7" fill="#f8f2dc" opacity="0.54"/><circle cx="633" cy="8" r="1.4" fill="#f8f2dc" opacity="0.92"/><circle cx="1185" cy="553" r="2.0" fill="#f8f2dc" opacity="0.96"/><circle cx="450" cy="514" r="2.5" fill="#f8f2dc" opacity="0.54"/><circle cx="540" cy="490" r="2.3" fill="#f8f2dc" opacity="0.80"/><circle cx="1442" cy="251" r="2.5" fill="#f8f2dc" opacity="0.50"/><circle cx="1135" cy="20" r="0.6" fill="#f8f2dc" opacity="0.39"/><circle cx="880" cy="441" r="2.3" fill="#f8f2dc" opacity="0.73"/><circle cx="599" cy="513" r="1.6" fill="#f8f2dc" opacity="0.87"/><circle cx="1587" cy="137" r="1.4" fill="#f8f2dc" opacity="0.92"/><circle cx="946" cy="502" r="0.6" fill="#f8f2dc" opacity="0.88"/><circle cx="1093" cy="356" r="0.9" fill="#f8f2dc" opacity="0.57"/><circle cx="1503" cy="225" r="2.4" fill="#f8f2dc" opacity="0.58"/><circle cx="1016" cy="377" r="1.0" fill="#f8f2dc" opacity="0.90"/><circle cx="233" cy="90" r="1.0" fill="#f8f2dc" opacity="0.60"/><circle cx="37" cy="0" r="2.0" fill="#f8f2dc" opacity="0.80"/><circle cx="1068" cy="14" r="1.6" fill="#f8f2dc" opacity="0.82"/><circle cx="354" cy="139" r="1.0" fill="#f8f2dc" opacity="0.38"/><circle cx="1140" cy="220" r="110" fill="#f6ecc8"/><circle cx="1180" cy="200" r="100" fill="#15204a" opacity="0.18"/><circle cx="1140" cy="220" r="180" fill="#f6ecc8" opacity="0.12" filter="url(#soft)"/><rect y="600" width="1640" height="400" fill="#0d1636"/><rect x="1134" y="620" width="40" height="3" fill="#f6ecc8" opacity="0.60"/><rect x="1124" y="629" width="46" height="3" fill="#f6ecc8" opacity="0.59"/><rect x="1104" y="638" width="52" height="3" fill="#f6ecc8" opacity="0.58"/><rect x="1109" y="647" width="58" height="3" fill="#f6ecc8" opacity="0.56"/><rect x="1094" y="656" width="64" height="3" fill="#f6ecc8" opacity="0.55"/><rect x="1120" y="665" width="70" height="3" fill="#f6ecc8" opacity="0.54"/><rect x="1121" y="674" width="76" height="3" fill="#f6ecc8" opacity="0.53"/><rect x="1099" y="683" width="82" height="3" fill="#f6ecc8" opacity="0.52"/><rect x="1084" y="692" width="88" height="3" fill="#f6ecc8" opacity="0.50"/><rect x="1082" y="701" width="94" height="3" fill="#f6ecc8" opacity="0.49"/><rect x="1091" y="710" width="100" height="3" fill="#f6ecc8" opacity="0.48"/><rect x="1103" y="719" width="106" height="3" fill="#f6ecc8" opacity="0.47"/><rect x="1071" y="728" width="112" height="3" fill="#f6ecc8" opacity="0.46"/><rect x="1085" y="737" width="118" height="3" fill="#f6ecc8" opacity="0.44"/><rect x="1076" y="746" width="124" height="3" fill="#f6ecc8" opacity="0.43"/><rect x="1064" y="755" width="130" height="3" fill="#f6ecc8" opacity="0.42"/><rect x="1090" y="764" width="136" height="3" fill="#f6ecc8" opacity="0.41"/><rect x="1059" y="773" width="142" height="3" fill="#f6ecc8" opacity="0.40"/><rect x="1080" y="782" width="148" height="3" fill="#f6ecc8" opacity="0.38"/><rect x="1065" y="791" width="154" height="3" fill="#f6ecc8" opacity="0.37"/><rect x="1053" y="800" width="160" height="3" fill="#f6ecc8" opacity="0.36"/><rect x="1070" y="809" width="166" height="3" fill="#f6ecc8" opacity="0.35"/><rect x="1053" y="818" width="172" height="3" fill="#f6ecc8" opacity="0.34"/><rect x="1064" y="827" width="178" height="3" fill="#f6ecc8" opacity="0.32"/><rect x="1037" y="836" width="184" height="3" fill="#f6ecc8" opacity="0.31"/><rect x="1041" y="845" width="190" height="3" fill="#f6ecc8" opacity="0.30"/><rect x="1057" y="854" width="196" height="3" fill="#f6ecc8" opacity="0.29"/><rect x="1035" y="863" width="202" height="3" fill="#f6ecc8" opacity="0.28"/><rect x="1044" y="872" width="208" height="3" fill="#f6ecc8" opacity="0.26"/><rect x="1041" y="881" width="214" height="3" fill="#f6ecc8" opacity="0.25"/><rect x="1033" y="890" width="220" height="3" fill="#f6ecc8" opacity="0.24"/><rect x="1032" y="899" width="226" height="3" fill="#f6ecc8" opacity="0.23"/><rect x="1017" y="908" width="232" height="3" fill="#f6ecc8" opacity="0.22"/><rect x="1016" y="917" width="238" height="3" fill="#f6ecc8" opacity="0.20"/><rect x="1027" y="926" width="244" height="3" fill="#f6ecc8" opacity="0.19"/><rect x="1004" y="935" width="250" height="3" fill="#f6ecc8" opacity="0.18"/><rect x="998" y="944" width="256" height="3" fill="#f6ecc8" opacity="0.17"/><rect x="1025" y="953" width="262" height="3" fill="#f6ecc8" opacity="0.16"/><rect x="996" y="962" width="268" height="3" fill="#f6ecc8" opacity="0.14"/><rect x="990" y="971" width="274" height="3" fill="#f6ecc8" opacity="0.13"/><path d="M180 640 l60 -40 l140 0 l40 40Z" fill="#070c20"/><path d="M280 600 l0 -140 l80 120Z" fill="#dfe4f0" opacity="0.8"/><rect width="1640" height="1000" filter="url(#grain)"/></svg>